<svg version="1.1" xmlns="http://www.w3.org/2000/svg" xmlns:xlink="http://www.w3.org/1999/xlink" width="1003" height="1310"><defs/><g><g/><g/><g/><g/><g/><g/><g/><g/><g/><g/><g/><g/><g/><g/><g/><g/><g/><g/><g/><g/><g/><g/><g/><g/><g/><g/><g/><g><rect fill="white" stroke="none" x="0" y="0" width="1003" height="1310"/></g><g><text fill="black" stroke="none" font-family="sans-serif" font-size="16.5pt" font-style="normal" font-weight="normal" text-decoration="normal" x="340.5868144809414" y="22.6179738" text-anchor="start" dominant-baseline="alphabetic">Making H-105 a smart classroom</text></g><g/><g><path fill="none" stroke="black" paint-order="fill stroke markers" d=" M 23.011401016015625 118.97054218800001 L 23.011401016015625 1310.183828988" stroke-miterlimit="10" stroke-width="1.2565541" stroke-dasharray="11.598960923076923,5.0262164"/><path fill="none" stroke="black" paint-order="fill stroke markers" d=" M 221.65579948242186 118.97054218800001 L 221.65579948242186 1310.183828988" stroke-miterlimit="10" stroke-width="1.2565541" stroke-dasharray="11.598960923076923,5.0262164"/><path fill="none" stroke="black" paint-order="fill stroke markers" d=" M 520.5113032955078 118.97054218800001 L 520.5113032955078 1310.183828988" stroke-miterlimit="10" stroke-width="1.2565541" stroke-dasharray="11.598960923076923,5.0262164"/><path fill="none" stroke="black" paint-order="fill stroke markers" d=" M 736.3027964884766 118.97054218800001 L 736.3027964884766 1310.183828988" stroke-miterlimit="10" stroke-width="1.2565541" stroke-dasharray="11.598960923076923,5.0262164"/><path fill="none" stroke="black" paint-order="fill stroke markers" d=" M 932.3901961761719 118.97054218800001 L 932.3901961761719 1310.183828988" stroke-miterlimit="10" stroke-width="1.2565541" stroke-dasharray="11.598960923076923,5.0262164"/></g><g><g><path fill="white" stroke="black" paint-order="fill stroke markers" d=" M 31.606231060015624 55.18785607200001 A 8.594830044 8.594830044 0 1 1 31.60622676260096 55.179261243388474 M 23.011401016015625 63.78268611600001 L 23.011401016015625 82.17863814 M 12.154773592015625 70.41729176400001 L 33.86802844001563 70.41729176400001 M 23.011401016015625 82.17863814 L 12.154773592015625 99.36829822800001 M 23.011401016015625 82.17863814 L 33.86802844001563 99.36829822800001" stroke-miterlimit="10" stroke-width="2.5633703640000003" stroke-dasharray=""/></g><g><g/><text fill="black" stroke="none" font-family="sans-serif" font-size="11pt" font-style="normal" font-weight="normal" text-decoration="normal" x="7.5393246000000005" y="114.44694742800002" text-anchor="start" dominant-baseline="alphabetic">User</text></g><path fill="none" stroke="none"/><g><path fill="white" stroke="black" paint-order="fill stroke markers" d=" M 169.4456192141914 78.258189348 L 273.86597975065234 78.258189348 L 273.86597975065234 118.970542188 L 169.4456192141914 118.970542188 L 169.4456192141914 78.258189348 Z" stroke-miterlimit="10" stroke-width="2.4125838720000004" stroke-dasharray=""/></g><g><g/><text fill="black" stroke="none" font-family="sans-serif" font-size="11pt" font-style="normal" font-weight="normal" text-decoration="normal" x="185.8059535961914" y="103.89189298800001" text-anchor="start" dominant-baseline="alphabetic">Application</text></g><path fill="none" stroke="none"/><g><path fill="white" stroke="black" paint-order="fill stroke markers" d=" M 482.56735074944527 78.258189348 L 558.4552558415703 78.258189348 L 558.4552558415703 118.970542188 L 482.56735074944527 118.970542188 L 482.56735074944527 78.258189348 Z" stroke-miterlimit="10" stroke-width="2.4125838720000004" stroke-dasharray=""/></g><g><g/><text fill="black" stroke="none" font-family="sans-serif" font-size="11pt" font-style="normal" font-weight="normal" text-decoration="normal" x="498.9276851314453" y="103.89189298800001" text-anchor="start" dominant-baseline="alphabetic">Server</text></g><g><path fill="white" stroke="black" paint-order="fill stroke markers" d=" M 714.2879686564766 89.41638975600002 L 714.2879686564766 57.75122643600001 L 758.3176243204766 57.75122643600001 L 758.3176243204766 89.41638975600002" stroke-miterlimit="10" stroke-width="2.5633703640000003" stroke-dasharray=""/><path fill="white" stroke="black" paint-order="fill stroke markers" d=" M 758.3176243204766 56.65048504440001 L 758.3165235882578 56.750002470476886 L 758.3132215016738 56.849509944894095 L 758.3077183909303 56.9489975169871 L 758.300014806334 57.04845523808161 L 758.2901115182369 57.147873162488395 L 758.2780095169595 57.24724134849785 L 758.263710012692 57.3465498593742 L 758.2472144353726 57.4457887643491 L 758.2285244345455 57.54494813961476 L 758.2076418791952 57.64401806931628 L 758.1845688575598 57.74298864654325 L 758.1593076769223 57.841849974320425 L 758.1318608633795 57.940592166597405 L 758.1022311615901 58.03920534923725 L 758.0704215344996 58.13767966100388 L 758.0364351630441 58.23600525454817 L 758.0002754458325 58.334172297392705 L 757.9619459988062 58.43217097291501 L 757.9214506548782 58.529991481329205 L 757.878793463549 58.62762404066595 L 757.8339786905021 58.72505888775068 L 757.7870108171778 58.82228627917988 L 757.7378945403241 58.91929649229543 L 757.6866347715276 59.01607982615686 L 757.6332366367226 59.11262660251144 L 757.5777054756782 59.20892716676198 L 757.520046841464 59.304971888932315 L 757.4602664998955 59.400751164630265 L 757.398370428957 59.49625541600807 L 757.3343648182041 59.59147509272019 L 757.2682560681445 59.68640067287828 L 757.2000507895981 59.78102266400345 L 757.1297558030358 59.87533160397543 L 757.0573781378979 59.969318061978825 L 756.9829250318904 60.06297263944614 L 756.906403930262 60.15628597099768 L 756.827822485059 60.24924872537805 L 756.7471885543605 60.34185160638929 L 756.6645102014924 60.43408535382045 L 756.5797956942209 60.52594074437366 L 756.4930535039264 60.617408592586415 L 756.4042923047554 60.708479751750104 L 756.313520972754 60.79914511482471 L 756.2207485849797 60.88939561534948 L 756.125984418594 60.97922222834956 L 756.0292379499347 61.06861597123853 L 755.9305188535677 61.15756790471657 L 755.8298370013207 61.24606913366447 L 755.7272024612948 61.33411080803308 L 755.6226254968586 61.42168412372834 L 755.5161165656214 61.50878032349165 L 755.4076863183875 61.59539069777562 L 755.2973455980913 61.68150658561499 L 755.1851054387129 61.76711937549275 L 755.0709770641747 61.85222050620124 L 754.954971887219 61.93680146769832 L 754.8371015082669 62.02085380195832 L 754.717377714258 62.104369103817845 L 754.5958124774719 62.18733902181633 L 754.472417954331 62.2697552590311 L 754.3472064841849 62.35160957390711 L 754.2201905880761 62.4328937810811 L 754.0913829674886 62.51359975220007 L 753.9607965030768 62.59371941673418 L 753.8284442533786 62.67324476278373 L 753.6943394535085 62.75216783788039 L 753.5584955138349 62.83048074978243 L 753.4209260186384 62.908175667263905 L 753.281644724754 62.98524482089782 L 753.1406655601949 63.06168050383303 L 752.9980026227602 63.13747507256495 L 752.8536701786246 63.212620947699854 L 752.7076826609124 63.28711061471286 L 752.5600546682537 63.360936624699335 L 752.4108009633246 63.4340915951198 L 752.2599364713714 63.50656821053819 L 752.1074762787173 63.578359223353345 L 751.9534356312548 63.64945745452381 L 751.7978299329203 63.71985579428573 L 751.6406747441537 63.78954720286377 L 751.481985780343 63.85852471117517 L 751.3217789102525 63.92678142152658 L 751.1600701544356 63.994310508303826 L 750.9968756836332 64.06110521865452 L 750.8322118171562 64.12715887316328 L 750.6660950212541 64.19246486651971 L 750.4985419074682 64.25701666817889 L 750.3295692309702 64.32080782301445 L 750.1591938888868 64.38383195196405 L 749.9874329186102 64.44608275266734 L 749.8143034960946 64.5075540000961 L 749.6398229341377 64.56823954717684 L 749.4640086806504 64.62813332540541 L 749.2868783169115 64.6872293454539 L 749.1084495558098 64.74552169776953 L 748.9287402400728 64.80300455316568 L 748.7477683404821 64.8596721634047 L 748.565551954077 64.91551886177277 L 748.3821093023444 64.97053906364663 L 748.1974587293963 65.0247272670519 L 748.0116187001363 65.07807805321343 L 747.8246077984126 65.13058608709704 L 747.6364447251592 65.18224611794311 L 747.447148296527 65.23305297979161 L 747.2567374420008 65.28300159199867 L 747.0652312025074 65.33208695974473 L 746.8726487285115 65.38030417453389 L 746.6790092780997 65.42764841468485 L 746.4843322150557 65.47411494581308 L 746.2886370069236 65.51969912130417 L 746.0919432230612 65.56439638277854 L 745.894270532683 65.60820226054732 L 745.6956387028931 65.65111237405922 L 745.4960675967093 65.69312243233865 L 745.2955771710756 65.73422823441479 L 745.0941874748676 65.7744256697417 L 744.8919186468871 65.81371071860933 L 744.6887909138483 65.85207945254552 L 744.4848245883553 65.88952803470889 L 744.2800400668707 65.9260527202724 L 744.0744578276758 65.96164985679792 L 743.8680984288235 65.99631588460149 L 743.6609825060815 66.03004733710921 L 743.4531307708695 66.06284084120392 L 743.2445640081879 66.09469311756257 L 743.0353030745391 66.12560098098405 L 742.8253688958421 66.15556134070776 L 742.6147824653399 66.18457120072271 L 742.4035648414998 66.21262766006708 L 742.1917371459085 66.23972791311832 L 741.9793205611589 66.26586924987369 L 741.7663363287325 66.2910490562213 L 741.5528057468748 66.31526481420151 L 741.3387501684664 66.3385141022587 L 741.1241909988865 66.36079459548343 L 740.9091496938736 66.38210406584494 L 740.6936477573786 66.40244038241397 L 740.4777067394158 66.42180151157581 L 740.2613482339069 66.44018551723366 L 740.0445938765223 66.45759056100228 L 739.827465342517 66.4740149023918 L 739.6099843445636 66.48945689898177 L 739.3921726305806 66.5039150065854 L 739.1740519815578 66.51738777940398 L 738.9556442093783 66.52987387017144 L 738.7369711546376 66.54137203028912 L 738.5180546844585 66.55188110995061 L 738.2989166903061 66.56140005825667 L 738.0795790857968 66.5699279233204 L 737.8600638045085 66.57746385236243 L 737.6403927977863 66.58400709179611 L 737.4205880325478 66.58955698730296 L 737.2006714890864 66.59411298389804 L 736.9806651588731 66.59767462598552 L 736.7605910423578 66.60024155740412 L 736.5404711467685 66.60181352146286 L 736.3203274839113 66.60239036096665 L 736.1001820679694 66.601972018232 L 735.8800569133006 66.60055853509284 L 735.6599740322371 66.59815005289633 L 735.4399554328834 66.59474681248865 L 735.2200231169163 66.59034915419102 L 735.0001990773841 66.5849575177656 L 734.7805052965075 66.57857244237155 L 734.5609637434815 66.57119456651108 L 734.3415963722784 66.56282462796563 L 734.1224251194527 66.55346346372208 L 733.903471901947 66.54311200988904 L 733.6847586149004 66.5317713016033 L 733.4663071294594 66.5194424729262 L 733.2481392905908 66.50612675673037 L 733.0302769148963 66.4918254845763 L 732.812741788432 66.47654008657929 L 732.5955556645295 66.46027209126643 L 732.3787402616199 66.44302312542368 L 732.162317261063 66.42479491393324 L 731.9463083049784 66.40558927960109 L 731.7307349940819 66.38540814297464 L 731.5156188855246 66.36425352215073 L 731.3009814907385 66.34212753257384 L 731.0868442732839 66.31903238682447 L 730.8732286467042 66.29497039439796 L 730.6601559723841 66.26994396147349 L 730.4476475574133 66.2439555906735 L 730.2357246524565 66.21700788081341 L 730.0244084496273 66.18910352664176 L 729.8137200803701 66.1602453185707 L 729.6036806133462 66.13043614239702 L 729.3943110523271 66.09967897901345 L 729.1856323340946 66.06797690411072 L 728.9776653263467 66.03533308786992 L 728.7704308256107 66.00175079464545 L 728.563949555164 65.96723338263864 L 728.3582421629616 65.93178430356194 L 728.1533292195713 65.89540710229372 L 727.9492312161168 65.85810541652378 L 727.7459685622282 65.81988297638962 L 727.5435615840015 65.7807436041034 L 727.342030521966 65.74069121356973 L 727.1413955290598 65.69972980999431 L 726.9416766686151 65.65786348948332 L 726.7428939123514 65.61509643863396 L 726.5450671383788 65.57143293411565 L 726.3482161292098 65.52687734224247 L 726.1523605697814 65.48143411853648 L 725.957520045486 65.43510780728218 L 725.763714040214 65.38790304107208 L 725.5709619344043 65.33982454034347 L 725.3792830031067 65.29087711290636 L 725.1886964140549 65.2410656534627 L 724.9992212257487 65.19039514311692 L 724.8108763855492 65.13887064887784 L 724.6236807277835 65.08649732315195 L 724.4376529718612 65.03328040322816 L 724.252811720403 64.97922521075414 L 724.06917545738 64.92433715120407 L 723.8867625462655 64.86862171333819 L 723.7055912281985 64.81208446865382 L 723.5256796201598 64.75473107082834 L 723.3470457131606 64.69656725515374 L 723.1697073704423 64.63759883796311 L 722.9936823256917 64.57783171604902 L 722.8189881812665 64.51727186607387 L 722.6456424064355 64.45592534397218 L 722.4736623356318 64.39379828434507 L 722.3030651667192 64.33089689984668 L 722.1338679592723 64.26722748056307 L 721.966087632871 64.20279639338311 L 721.799740965408 64.13761008136183 L 721.6348445914114 64.0716750630761 L 721.4714150003813 64.00499793197281 L 721.3094685351406 63.9375853557095 L 721.1490213902008 63.86944407548762 L 720.9900896101427 63.80058090537841 L 720.8326890880119 63.7310027316415 L 720.6768355637295 63.660716512036274 L 720.5225446225179 63.58972927512613 L 720.3698316933427 63.518048119575596 L 720.2187120473696 63.44568021344049 L 720.0692007964374 63.372632793451125 L 719.9213128915463 63.29891316428863 L 719.7750631213638 63.22452869785448 L 719.6304661107449 63.149486832533334 L 719.4875363192702 63.0737950724492 L 719.3462880397998 62.997460986715 L 719.2067353970439 62.92049220867569 L 719.0688923461504 62.842896435144944 L 718.9327726713095 62.76468142563545 L 718.7983899843755 62.68585500158298 L 718.665757723505 62.60642504556425 L 718.5348891518134 62.526399500508674 L 718.405797356049 62.44578636890406 L 718.2784952452837 62.3645937119964 L 718.1529955496225 62.28282964898372 L 718.0293108189303 62.20050235620419 L 717.9074534215773 62.11762006631847 L 717.7874355432017 62.0341910674865 L 717.6692691854911 61.95022370253862 L 717.5529661649829 61.86572636814137 L 717.4385381118823 61.78070751395776 L 717.3259964688991 61.695175641802365 L 717.2153524901039 61.60913930479112 L 717.1066172398025 61.52260710648604 L 716.9998015914292 61.43558770003484 L 716.8949162264597 61.348089787305646 L 716.7919716333433 61.26012211801682 L 716.6909781064535 61.17169348886198 L 716.5919457450588 61.08281274263036 L 716.4948844523127 60.99348876732251 L 716.3998039342637 60.90373049526153 L 716.3067136988843 60.81354690219982 L 716.2156230551205 60.722947006421535 L 716.1265411119609 60.63193986784075 L 716.0394767775254 60.54053458709549 L 715.954438758175 60.44874030463767 L 715.8714355576407 60.356566199819014 L 715.7904754761732 60.26402148997322 L 715.7115666097137 60.17111542949413 L 715.6347168490826 60.07785730891038 L 715.5599338791922 59.98425645395631 L 715.487225178277 59.89032222463943 L 715.4165980171465 59.79606401430437 L 715.3480594584581 59.70149124869363 L 715.2816163560105 59.606613385004955 L 715.2172753540585 59.511439910945654 L 715.1550428866487 59.41598034378382 L 715.0949251769762 59.32024422939662 L 715.0369282367615 59.224241141315716 L 714.9810578656505 59.127980679769905 L 714.9273196506339 59.03147247072513 L 714.875718965488 58.93472616492187 L 714.8262609702386 58.83775143691009 L 714.7789506106442 58.74055798408177 L 714.7337926177008 58.64315552570121 L 714.6907915071706 58.54555380193307 L 714.6499515791285 58.44776257286839 L 714.6112769175334 58.3497916175486 L 714.574771389819 58.25165073298757 L 714.540438646508 58.15334973319199 L 714.508282120846 58.054898448179905 L 714.4783050284586 57.95630672299779 L 714.4505103670303 57.85758441673599 L 714.4249009160039 57.75874140154287 L 714.4014792363033 57.659787561637586 L 714.3802476700769 57.56073279232165 L 714.3612083404635 57.46158699898947 L 714.3443631513803 57.36236009613774 L 714.3297137873323 57.26306200637407 L 714.3172617132434 57.16370265942468 L 714.3070081743109 57.06429199114147 L 714.29895419588 56.96483994250841 L 714.293100583342 56.86535645864751 L 714.2894479220531 56.76585148782425 L 714.2879965772764 56.666334980452774 L 714.2887466941453 56.56681688810091 L 714.2916981976487 56.46730716249495 L 714.2968507926385 56.367815754524536 L 714.3042039638598 56.268352613247544 L 714.3137569760013 56.16892768489523 L 714.32550887377 56.06955091187757 L 714.3394584819858 55.970232231789055 L 714.3556044056996 55.87098157641492 L 714.3739450303324 55.771808870738006 L 714.394478521837 55.672724031946224 L 714.4172028268814 55.57373696844089 L 714.442115673054 55.47485757884587 L 714.469214569091 55.376095751017715 L 714.4984968051253 55.27746136105691 L 714.5299594529578 55.17896427232026 L 714.5635993663499 55.08061433443455 L 714.5994131813382 54.98242138231162 L 714.6373973165712 54.884395235164845 L 714.6775479736668 54.786545695527266 L 714.719861137593 54.68888254827129 L 714.7643325770687 54.59141555963026 L 714.8109578449868 54.49415447622183 L 714.8597322788594 54.39710902407328 L 714.9106510012838 54.30028890764895 L 714.9637089204301 54.20370380887981 L 715.0189007305509 54.10736338619524 L 715.0762209125107 54.01127727355723 L 715.1356637343396 53.91545507949698 L 715.1972232518045 53.81990638615403 L 715.2608933090053 53.724640748318095 L 715.3266675389891 53.629667692473575 L 715.3945393643879 53.53499671584691 L 715.4645019980755 53.440637285456866 L 715.536548443847 53.34659883716785 L 715.6106714971179 53.252890774746334 L 715.6868637456444 53.15952246892046 L 715.7651175702654 53.066503256443006 L 715.8454251456635 52.973842439157714 L 715.9277784411481 52.88154928306908 L 716.0121692214584 52.78963301741582 L 716.0985890475865 52.69810283374788 L 716.187029277622 52.606967885007364 L 716.2774810676154 52.51623728461321 L 716.3699353724633 52.425920105549835 L 716.4643829468121 52.33602537945989 L 716.5608143459831 52.24656209574106 L 716.6592199269166 52.15753920064718 L 716.7595898491369 52.06896559639356 L 716.8619140757351 51.980850140266824 L 716.9661823743738 51.893201643739154 L 717.0723843183102 51.80602887158716 L 717.1805092874383 51.71934054101541 L 717.2905464693514 51.63314532078473 L 717.4024848604229 51.5474518303453 L 717.516313266907 51.46226863897477 L 717.6320203060578 51.37760426492128 L 717.749594407268 51.29346717455169 L 717.8690238132253 51.20986578150492 L 717.9902965810888 51.12680844585059 L 718.1134005836826 51.04430347325308 L 718.2383235107092 50.962359114140874 L 718.3650528699798 50.88098356288161 L 718.4935759886641 50.800184956962596 L 718.6238800145576 50.71997137617709 L 718.755951917366 50.64035084181633 L 718.8897784900092 50.5613313158674 L 719.0253463499415 50.48292070021704 L 719.1626419404898 50.40512683586149 L 719.3016515322095 50.32795750212234 L 719.4423612242572 50.25142041586866 L 719.584756945781 50.17552323074529 L 719.7288244573275 50.100273536407514 L 719.8745493522654 50.025678857762045 L 720.0219170582269 49.95174665421458 L 720.1709128385639 49.878484318923874 L 720.3215217938229 49.8058991780624 L 720.4737288632335 49.733998490083756 L 720.6275188262159 49.662789444996825 L 720.7828763039018 49.59227916364677 L 720.939785760673 49.52247469700298 L 721.0982315057144 49.45338302545394 L 721.2581976945836 49.38501105810922 L 721.4196683307952 49.3173656321086 L 721.58262726742 49.25045351193829 L 721.7470582087001 49.18428138875455 L 721.9129447116784 49.118855879714566 L 722.0802701878429 49.054183527314706 L 722.2490179047854 48.990270798736326 L 722.4191709878748 48.927124085199026 L 722.5907124219447 48.864749701321536 L 722.7636250529945 48.80315388449026 L 722.9378915899052 48.74234279423555 L 723.1134946061685 48.68232251161576 L 723.2904165416288 48.62309903860914 L 723.4686397042403 48.56467829751363 L 723.6481462718351 48.50706613035466 L 723.8289182939061 48.450268298300934 L 724.0109376934016 48.394290481088326 L 724.1941862685335 48.33913827645191 L 724.3786456945969 48.28481719956619 L 724.5642975258029 48.23133268249359 L 724.7511231971232 48.17869007364124 L 724.9391040261462 48.12689463722616 L 725.1282212149457 48.07595155274883 L 725.3184558519605 48.02586591447525 L 725.5097889138854 47.976642730927495 L 725.7022012675735 47.92828692438291 L 725.8956736719499 47.88080333038186 L 726.0901867799354 47.83419669724416 L 726.2857211403813 47.788471685594295 L 726.4822572000145 47.74363286789533 L 726.6797753053928 47.69968472799165 L 726.8782557048702 47.65663166066065 L 727.0776785505722 47.614477971173166 L 727.2780239003804 47.57322787486302 L 727.4792717199268 47.532885496705475 L 727.6814018845972 47.49345487090473 L 727.8843941815435 47.45493994049049 L 728.0882283117052 47.41734455692372 L 728.292883891839 47.38067247971144 L 728.4983404565577 47.34492737603081 L 728.7045774603758 47.310112820362406 L 728.911574279765 47.2762322941328 L 729.1193102152156 47.24328918536636 L 729.3277644933074 47.21128678834652 L 729.5369162687862 47.18022830328631 L 729.7467446266487 47.150116836008365 L 729.9572285842341 47.120955397634305 L 730.1683470933219 47.09274690428368 L 730.3800790422373 47.06549417678231 L 730.5924032579617 47.03919994038023 L 730.8052985082504 47.01386682447918 L 731.018743503756 46.98949736236963 L 731.2327169001567 46.96609399097749 L 731.4471973002911 46.94365905062039 L 731.6621632562981 46.92219478477368 L 731.877593271761 46.901703339846044 L 732.0934658038581 46.882186764964906 L 732.3097592655157 46.86364701177149 L 732.5264520275682 46.84608593422567 L 732.7435224209198 46.82950528842056 L 732.9609487387122 46.81390673240693 L 733.1787092384947 46.79929182602737 L 733.3967821443987 46.78566203076035 L 733.6151456493154 46.77301870957403 L 733.8337779170764 46.76136312679001 L 734.0526570846371 46.750696447956834 L 734.271761264263 46.74101973973351 L 734.4910685457188 46.732333969782786 L 734.7105569984591 46.724640006674434 L 734.9302046738215 46.717938619798346 L 735.1499896072216 46.71223047928761 L 735.3698898203492 46.70751615595155 L 735.589883323366 46.703796121218545 L 735.8099481171055 46.701070747088984 L 736.0300621952713 46.699340306098 L 736.2502035466391 46.698604971288255 L 736.4703501572573 46.69886481619261 L 736.6904800126482 46.700119814826806 L 736.9105711000097 46.702369841692004 L 737.1306014104167 46.705614671787416 L 737.3505489410212 46.709853980632715 L 737.5703916972536 46.715087344300564 L 737.7901076950216 46.72131423945895 L 738.0096749629082 46.72853404342355 L 738.2290715443697 46.73674603421998 L 738.448275499931 46.745949390656016 L 738.6672649093789 46.75614319240367 L 738.8860178739552 46.767326420091266 L 739.1045125185456 46.77949795540535 L 739.3227269938677 46.792656581202536 L 739.540639478656 46.80680098163122 L 739.7582281818434 46.82192974226314 L 739.9754713447409 46.83804135023483 L 740.1923472432134 46.85513419439893 L 740.4088341898516 46.87320656548526 L 740.6249105361416 46.89225665627179 L 740.8405546746284 46.912282561765295 L 741.055745041078 46.93328227939192 L 741.2704601166332 46.95525370919741 L 741.4846784299652 46.97819465405708 L 741.6983785594214 47.00210281989557 L 741.9115391351668 47.026975815916224 L 742.1241388413214 47.05281115484016 L 742.3361564180918 47.07960625315501 L 742.5475706638971 47.107358431373285 L 742.7583604374887 47.136064914300285 L 742.9685046600652 47.16572283131164 L 743.1779823173791 47.19632921664036 L 743.3867724618395 47.22788100967341 L 743.5948542146058 47.260375055257796 L 743.8022067676762 47.29380810401604 L 744.0088093859682 47.3281768126711 L 744.2146414093921 47.36347774438077 L 744.4196822549171 47.39970736908131 L 744.6239114186295 47.436862063840415 L 744.8273084777832 47.47493811321959 L 745.0298530928416 47.51393170964561 L 745.2315250095121 47.55383895379134 L 745.4323040607711 47.59465585496562 L 745.6321701688807 47.63637833151234 L 745.8311033473968 47.679002211218624 L 746.0290837031672 47.72252323173201 L 746.2260914383214 47.76693704098672 L 746.42210685225 47.812239197638846 L 746.6171103435748 47.85842517151046 L 746.8110824121095 47.905490344042676 L 747.0040036608086 47.95343000875745 L 747.1958547977082 48.00223937172827 L 747.3866166378543 48.05191355205951 L 747.576270105222 48.10244758237453 L 747.7647962346225 48.15383640931242 L 747.9521761736002 48.20607489403329 L 748.1383911843169 48.25915781273222 L 748.3234226454272 48.31307985716156 L 748.5072520539388 48.36783563516181 L 748.6898610270644 48.423419671200804 L 748.8712313040585 48.479826406921255 L 749.0513447480447 48.53705020169659 L 749.2301833478288 48.59508533319502 L 749.4077292196996 48.65392599795177 L 749.5839646092181 48.71356631194938 L 749.7588718929921 48.77400031120615 L 749.9324335804391 48.835221952372535 L 750.1046323155349 48.89722511333542 L 750.2754508785495 48.96000359383039 L 750.4448721877687 49.0235511160617 L 750.6128793012033 49.08786132533009 L 750.7794554182815 49.152927790668215 L 750.9445838815305 49.21874400548377 L 751.1082481782418 49.285303388210124 L 751.2704319421218 49.35259928296446 L 751.4311189549295 49.420624960213395 L 751.5902931480974 49.489373617445885 L 751.747938604339 49.55883837985349 L 751.9040395592399 49.62901230101787 L 752.0585804028347 49.69988836360538 L 752.2115456811678 49.77145948006883 L 752.3629200978388 49.8437184933562 L 752.5126885155323 49.916658177626395 L 752.6608359575314 49.99027123897176 L 752.8073476092152 50.0645503161475 L 752.9522088195406 50.13948798130782 L 753.0954051025074 50.21507674074863 L 753.2369221386066 50.29130903565699 L 753.3767457762525 50.36817724286692 L 753.5148620331979 50.44567367562176 L 753.6512570979321 50.52379058434283 L 753.7859173310625 50.602520157404335 L 753.9188292666777 50.68185452191459 L 754.0499796136951 50.76178574450325 L 754.1793552571893 50.84230583211467 L 754.3069432597036 50.92340673280718 L 754.4327308625443 51.00508033655831 L 754.5567054870559 51.08731847607572 L 754.678854735879 51.17011292761402 L 754.7991663941908 51.25345541179703 L 754.9176284309256 51.33733759444579 L 755.0342289999784 51.42175108741194 L 755.1489564413896 51.506687449416525 L 755.2617992825105 51.592138186894125 L 755.3727462391512 51.6780947548422 L 755.4817862167083 51.76454855767558 L 755.5889083112752 51.85149095008604 L 755.6941018107314 51.93891323790678 L 755.7973561958147 52.02680667898187 L 755.8986611411727 52.115162484040454 L 755.9980065163953 52.20397181757565 L 756.0953823870278 52.293225798728116 L 756.1907790155641 52.38291550217411 L 756.284186862421 52.47303195901802 L 756.3755965868917 52.56356615768928 L 756.4649990480797 52.65450904484346 L 756.5523853058136 52.74585152626762 L 756.6377466215403 52.837584467789746 L 756.7210744591994 52.92969869619212 L 756.8023604860766 53.02218500012867 L 756.8815965736371 53.11503413104609 L 756.9587747983379 53.20823680410863 L 757.033887442421 53.30178369912667 L 757.1069269946846 53.39566546148867 L 757.1778861512342 53.48987270309661 L 757.2467578162135 53.58439600330485 L 757.3135351025132 53.67922590986214 L 757.3782113324604 53.77435293985683 L 757.440780038486 53.86976758066522 L 757.5012349637715 53.96546029090272 L 757.5595700628747 54.06142150137806 L 757.6157795023346 54.15764161605015 L 757.6698576612537 54.254111012987714 L 757.7217991318614 54.350820045331446 L 757.7715987200538 54.4477590422587 L 757.8192514459138 54.54491830995058 L 757.8647525442083 54.64228813256127 L 757.9080974648654 54.739858773189646 L 757.9492818734292 54.83762047485297 L 757.9883016514933 54.93556346146252 L 758.0251528971122 55.033677938801276 L 758.0598319251922 55.131954095503254 L 758.0923352678593 55.23038210403468 L 758.1226596748064 55.328952121676735 L 758.1508021136179 55.42765429150978 L 758.1767597700737 55.5264787433991 L 758.2005300484294 55.62541559498185 L 758.2221105716773 55.72445495265532 L 758.2414991817828 55.82358691256627 L 758.2586939399011 55.92280156160133 L 758.273693126571 56.022088978378264 L 758.286495241886 56.121439234238146 L 758.2970990056454 56.22084239423817 L 758.3055033574815 56.32028851814517 L 758.3117074569662 56.41976766142964 L 758.3157106836949 56.51926987626014 L 758.3175126373479 56.61878521249811 M 758.3176243204766 88.31564836440002 L 758.3165235882578 88.4151657904769 L 758.3132215016738 88.5146732648941 L 758.3077183909303 88.61416083698711 L 758.300014806334 88.71361855808162 L 758.2901115182369 88.8130364824884 L 758.2780095169595 88.91240466849787 L 758.263710012692 89.01171317937421 L 758.2472144353726 89.11095208434912 L 758.2285244345455 89.21011145961478 L 758.2076418791952 89.3091813893163 L 758.1845688575598 89.40815196654326 L 758.1593076769223 89.50701329432043 L 758.1318608633795 89.60575548659742 L 758.1022311615901 89.70436866923727 L 758.0704215344996 89.80284298100389 L 758.0364351630441 89.90116857454818 L 758.0002754458325 89.99933561739272 L 757.9619459988062 90.09733429291502 L 757.9214506548782 90.19515480132921 L 757.878793463549 90.29278736066595 L 757.8339786905021 90.3902222077507 L 757.7870108171778 90.4874495991799 L 757.7378945403241 90.58445981229544 L 757.6866347715276 90.68124314615687 L 757.6332366367226 90.77778992251145 L 757.5777054756782 90.874090486762 L 757.520046841464 90.97013520893233 L 757.4602664998955 91.06591448463028 L 757.398370428957 91.16141873600809 L 757.3343648182041 91.25663841272019 L 757.2682560681445 91.3515639928783 L 757.2000507895981 91.44618598400346 L 757.1297558030358 91.54049492397544 L 757.0573781378979 91.63448138197883 L 756.9829250318904 91.72813595944615 L 756.906403930262 91.82144929099769 L 756.827822485059 91.91441204537807 L 756.7471885543605 92.0070149263893 L 756.6645102014924 92.09924867382047 L 756.5797956942209 92.19110406437368 L 756.4930535039264 92.28257191258642 L 756.4042923047554 92.37364307175011 L 756.313520972754 92.46430843482472 L 756.2207485849797 92.55455893534949 L 756.125984418594 92.64438554834958 L 756.0292379499347 92.73377929123853 L 755.9305188535677 92.82273122471658 L 755.8298370013207 92.91123245366448 L 755.7272024612948 92.9992741280331 L 755.6226254968586 93.08684744372835 L 755.5161165656214 93.17394364349167 L 755.4076863183875 93.26055401777563 L 755.2973455980913 93.346669905615 L 755.1851054387129 93.43228269549276 L 755.0709770641747 93.51738382620125 L 754.954971887219 93.60196478769834 L 754.8371015082669 93.68601712195833 L 754.717377714258 93.76953242381786 L 754.5958124774719 93.85250234181635 L 754.472417954331 93.9349185790311 L 754.3472064841849 94.01677289390713 L 754.2201905880761 94.09805710108111 L 754.0913829674886 94.17876307220008 L 753.9607965030768 94.2588827367342 L 753.8284442533786 94.33840808278374 L 753.6943394535085 94.41733115788041 L 753.5584955138349 94.49564406978244 L 753.4209260186384 94.57333898726392 L 753.281644724754 94.65040814089784 L 753.1406655601949 94.72684382383305 L 752.9980026227602 94.80263839256496 L 752.8536701786246 94.87778426769987 L 752.7076826609124 94.95227393471288 L 752.5600546682537 95.02609994469935 L 752.4108009633246 95.09925491511981 L 752.2599364713714 95.1717315305382 L 752.1074762787173 95.24352254335335 L 751.9534356312548 95.31462077452383 L 751.7978299329203 95.38501911428574 L 751.6406747441537 95.45471052286379 L 751.481985780343 95.52368803117518 L 751.3217789102525 95.59194474152659 L 751.1600701544356 95.65947382830383 L 750.9968756836332 95.72626853865452 L 750.8322118171562 95.7923221931633 L 750.6660950212541 95.85762818651972 L 750.4985419074682 95.9221799881789 L 750.3295692309702 95.98597114301445 L 750.1591938888868 96.04899527196406 L 749.9874329186102 96.11124607266736 L 749.8143034960946 96.17271732009613 L 749.6398229341377 96.23340286717686 L 749.4640086806504 96.29329664540542 L 749.2868783169115 96.3523926654539 L 749.1084495558098 96.41068501776955 L 748.9287402400728 96.4681678731657 L 748.7477683404821 96.5248354834047 L 748.565551954077 96.58068218177279 L 748.3821093023444 96.63570238364663 L 748.1974587293963 96.6898905870519 L 748.0116187001363 96.74324137321344 L 747.8246077984126 96.79574940709705 L 747.6364447251592 96.84740943794313 L 747.447148296527 96.89821629979161 L 747.2567374420008 96.94816491199869 L 747.0652312025074 96.99725027974473 L 746.8726487285115 97.0454674945339 L 746.6790092780997 97.09281173468487 L 746.4843322150557 97.13927826581309 L 746.2886370069236 97.18486244130418 L 746.0919432230612 97.22955970277856 L 745.894270532683 97.27336558054733 L 745.6956387028931 97.31627569405923 L 745.4960675967093 97.35828575233866 L 745.2955771710756 97.3993915544148 L 745.0941874748676 97.43958898974171 L 744.8919186468871 97.47887403860933 L 744.6887909138483 97.51724277254554 L 744.4848245883553 97.5546913547089 L 744.2800400668707 97.5912160402724 L 744.0744578276758 97.62681317679792 L 743.8680984288235 97.6614792046015 L 743.6609825060815 97.69521065710921 L 743.4531307708695 97.72800416120393 L 743.2445640081879 97.75985643756258 L 743.0353030745391 97.79076430098405 L 742.8253688958421 97.82072466070777 L 742.6147824653399 97.84973452072273 L 742.4035648414998 97.8777909800671 L 742.1917371459085 97.90489123311833 L 741.9793205611589 97.93103256987371 L 741.7663363287325 97.95621237622132 L 741.5528057468748 97.98042813420153 L 741.3387501684664 98.0036774222587 L 741.1241909988865 98.02595791548345 L 740.9091496938736 98.04726738584496 L 740.6936477573786 98.06760370241399 L 740.4777067394158 98.08696483157581 L 740.2613482339069 98.10534883723366 L 740.0445938765223 98.1227538810023 L 739.827465342517 98.13917822239182 L 739.6099843445636 98.15462021898179 L 739.3921726305806 98.16907832658542 L 739.1740519815578 98.182551099404 L 738.9556442093783 98.19503719017146 L 738.7369711546376 98.20653535028914 L 738.5180546844585 98.21704442995062 L 738.2989166903061 98.22656337825667 L 738.0795790857968 98.23509124332041 L 737.8600638045085 98.24262717236243 L 737.6403927977863 98.24917041179611 L 737.4205880325478 98.25472030730296 L 737.2006714890864 98.25927630389805 L 736.9806651588731 98.26283794598552 L 736.7605910423578 98.26540487740414 L 736.5404711467685 98.26697684146288 L 736.3203274839113 98.26755368096666 L 736.1001820679694 98.26713533823201 L 735.8800569133006 98.26572185509286 L 735.6599740322371 98.26331337289633 L 735.4399554328834 98.25991013248867 L 735.2200231169163 98.25551247419104 L 735.0001990773841 98.25012083776562 L 734.7805052965075 98.24373576237157 L 734.5609637434815 98.2363578865111 L 734.3415963722784 98.22798794796564 L 734.1224251194527 98.21862678372209 L 733.903471901947 98.20827532988906 L 733.6847586149004 98.1969346216033 L 733.4663071294594 98.18460579292622 L 733.2481392905908 98.17129007673037 L 733.0302769148963 98.1569888045763 L 732.812741788432 98.14170340657931 L 732.5955556645295 98.12543541126645 L 732.3787402616199 98.1081864454237 L 732.162317261063 98.08995823393326 L 731.9463083049784 98.07075259960111 L 731.7307349940819 98.05057146297464 L 731.5156188855246 98.02941684215075 L 731.3009814907385 98.00729085257386 L 731.0868442732839 97.9841957068245 L 730.8732286467042 97.96013371439797 L 730.6601559723841 97.9351072814735 L 730.4476475574133 97.90911891067351 L 730.2357246524565 97.88217120081342 L 730.0244084496273 97.85426684664178 L 729.8137200803701 97.82540863857072 L 729.6036806133462 97.79559946239702 L 729.3943110523271 97.76484229901347 L 729.1856323340946 97.73314022411074 L 728.9776653263467 97.70049640786993 L 728.7704308256107 97.66691411464545 L 728.563949555164 97.63239670263864 L 728.3582421629616 97.59694762356195 L 728.1533292195713 97.56057042229372 L 727.9492312161168 97.52326873652379 L 727.7459685622282 97.48504629638963 L 727.5435615840015 97.44590692410341 L 727.342030521966 97.40585453356975 L 727.1413955290598 97.36489312999431 L 726.9416766686151 97.32302680948334 L 726.7428939123514 97.28025975863397 L 726.5450671383788 97.23659625411567 L 726.3482161292098 97.19204066224249 L 726.1523605697814 97.14659743853649 L 725.957520045486 97.10027112728218 L 725.763714040214 97.05306636107208 L 725.5709619344043 97.00498786034348 L 725.3792830031067 96.95604043290636 L 725.1886964140549 96.9062289734627 L 724.9992212257487 96.85555846311694 L 724.8108763855492 96.80403396887786 L 724.6236807277835 96.75166064315196 L 724.4376529718612 96.69844372322818 L 724.252811720403 96.64438853075416 L 724.06917545738 96.58950047120409 L 723.8867625462655 96.53378503333819 L 723.7055912281985 96.47724778865383 L 723.5256796201598 96.41989439082835 L 723.3470457131606 96.36173057515376 L 723.1697073704423 96.30276215796312 L 722.9936823256917 96.24299503604902 L 722.8189881812665 96.18243518607389 L 722.6456424064355 96.1210886639722 L 722.4736623356318 96.05896160434507 L 722.3030651667192 95.99606021984668 L 722.1338679592723 95.93239080056308 L 721.966087632871 95.86795971338313 L 721.799740965408 95.80277340136185 L 721.6348445914114 95.73683838307612 L 721.4714150003813 95.67016125197281 L 721.3094685351406 95.6027486757095 L 721.1490213902008 95.53460739548763 L 720.9900896101427 95.46574422537843 L 720.8326890880119 95.39616605164152 L 720.6768355637295 95.32587983203629 L 720.5225446225179 95.25489259512614 L 720.3698316933427 95.1832114395756 L 720.2187120473696 95.1108435334405 L 720.0692007964374 95.03779611345114 L 719.9213128915463 94.96407648428864 L 719.7750631213638 94.88969201785449 L 719.6304661107449 94.81465015253335 L 719.4875363192702 94.7389583924492 L 719.3462880397998 94.662624306715 L 719.2067353970439 94.5856555286757 L 719.0688923461504 94.50805975514496 L 718.9327726713095 94.42984474563546 L 718.7983899843755 94.351018321583 L 718.665757723505 94.27158836556427 L 718.5348891518134 94.19156282050868 L 718.405797356049 94.11094968890407 L 718.2784952452837 94.02975703199641 L 718.1529955496225 93.94799296898373 L 718.0293108189303 93.8656656762042 L 717.9074534215773 93.78278338631848 L 717.7874355432017 93.69935438748651 L 717.6692691854911 93.61538702253864 L 717.5529661649829 93.53088968814139 L 717.4385381118823 93.44587083395777 L 717.3259964688991 93.36033896180237 L 717.2153524901039 93.27430262479113 L 717.1066172398025 93.18777042648605 L 716.9998015914292 93.10075102003485 L 716.8949162264597 93.01325310730566 L 716.7919716333433 92.92528543801683 L 716.6909781064535 92.836856808862 L 716.5919457450588 92.74797606263037 L 716.4948844523127 92.65865208732252 L 716.3998039342637 92.56889381526153 L 716.3067136988843 92.47871022219982 L 716.2156230551205 92.38811032642154 L 716.1265411119609 92.29710318784076 L 716.0394767775254 92.20569790709551 L 715.954438758175 92.11390362463767 L 715.8714355576407 92.02172951981903 L 715.7904754761732 91.92918480997322 L 715.7115666097137 91.83627874949414 L 715.6347168490826 91.74302062891039 L 715.5599338791922 91.64941977395632 L 715.487225178277 91.55548554463944 L 715.4165980171465 91.46122733430438 L 715.3480594584581 91.36665456869365 L 715.2816163560105 91.27177670500497 L 715.2172753540585 91.17660323094567 L 715.1550428866487 91.08114366378383 L 715.0949251769762 90.98540754939663 L 715.0369282367615 90.88940446131572 L 714.9810578656505 90.79314399976991 L 714.9273196506339 90.69663579072514 L 714.875718965488 90.59988948492189 L 714.8262609702386 90.5029147569101 L 714.7789506106442 90.40572130408178 L 714.7337926177008 90.30831884570122 L 714.6907915071706 90.21071712193307 L 714.6499515791285 90.1129258928684 L 714.6112769175334 90.01495493754861 L 714.574771389819 89.91681405298758 L 714.540438646508 89.81851305319199 L 714.508282120846 89.72006176817992 L 714.4783050284586 89.6214700429978 L 714.4505103670303 89.52274773673601 L 714.4249009160039 89.42390472154288 L 714.4014792363033 89.32495088163759 L 714.3802476700769 89.22589611232166 L 714.3612083404635 89.12675031898948 L 714.3443631513803 89.02752341613775 L 714.3297137873323 88.92822532637408 L 714.3172617132434 88.82886597942469 L 714.3070081743109 88.72945531114148 L 714.29895419588 88.63000326250842 L 714.293100583342 88.53051977864753 L 714.2894479220531 88.43101480782425 L 714.2879965772764 88.3314983004528" stroke-miterlimit="10" stroke-width="2.5633703640000003" stroke-dasharray=""/></g><g><g/><text fill="black" stroke="none" font-family="sans-serif" font-size="11pt" font-style="normal" font-weight="normal" text-decoration="normal" x="704.9328395182617" y="114.44694742800002" text-anchor="start" dominant-baseline="alphabetic">Database</text></g><path fill="none" stroke="none"/><g><path fill="white" stroke="black" paint-order="fill stroke markers" d=" M 868.375580177961 78.258189348 L 996.4048121743829 78.258189348 L 996.4048121743829 118.970542188 L 868.375580177961 118.970542188 L 868.375580177961 78.258189348 Z" stroke-miterlimit="10" stroke-width="2.4125838720000004" stroke-dasharray=""/></g><g><g/><text fill="black" stroke="none" font-family="sans-serif" font-size="11pt" font-style="normal" font-weight="normal" text-decoration="normal" x="884.735914559961" y="103.89189298800001" text-anchor="start" dominant-baseline="alphabetic">Sensor/Device</text></g></g><g><path fill="white" stroke="black" paint-order="fill stroke markers" d=" M 15.472076416015625 183.808733748 L 30.550725616015626 183.808733748 L 30.550725616015626 437.1300403080001 L 15.472076416015625 437.1300403080001 L 15.472076416015625 183.808733748" stroke-miterlimit="10" stroke-width="1.2565541" stroke-dasharray=""/><path fill="white" stroke="black" paint-order="fill stroke markers" d=" M 214.11647488242187 226.028951508 L 229.19512408242184 226.028951508 L 229.19512408242184 437.1300403080001 L 214.11647488242187 437.1300403080001 L 214.11647488242187 226.028951508" stroke-miterlimit="10" stroke-width="1.2565541" stroke-dasharray=""/><path fill="white" stroke="black" paint-order="fill stroke markers" d=" M 512.9719786955078 268.249169268 L 528.0506278955078 268.249169268 L 528.0506278955078 394.9098225480001 L 512.9719786955078 394.9098225480001 L 512.9719786955078 268.249169268" stroke-miterlimit="10" stroke-width="1.2565541" stroke-dasharray=""/><path fill="white" stroke="black" paint-order="fill stroke markers" d=" M 728.7634718884766 310.469387028 L 743.8421210884766 310.469387028 L 743.8421210884766 352.68960478800005 L 728.7634718884766 352.68960478800005 L 728.7634718884766 310.469387028" stroke-miterlimit="10" stroke-width="1.2565541" stroke-dasharray=""/><path fill="white" stroke="black" paint-order="fill stroke markers" d=" M 15.472076416015625 494.4289072680001 L 30.550725616015626 494.4289072680001 L 30.550725616015626 862.347947748 L 15.472076416015625 862.347947748 L 15.472076416015625 494.4289072680001" stroke-miterlimit="10" stroke-width="1.2565541" stroke-dasharray=""/><path fill="white" stroke="black" paint-order="fill stroke markers" d=" M 214.11647488242187 551.7277742280002 L 229.19512408242184 551.7277742280002 L 229.19512408242184 862.347947748 L 214.11647488242187 862.347947748 L 214.11647488242187 551.7277742280002" stroke-miterlimit="10" stroke-width="1.2565541" stroke-dasharray=""/><path fill="white" stroke="black" paint-order="fill stroke markers" d=" M 512.9719786955078 593.9479919880001 L 528.0506278955078 593.9479919880001 L 528.0506278955078 805.049080788 L 512.9719786955078 805.049080788 L 512.9719786955078 593.9479919880001" stroke-miterlimit="10" stroke-width="1.2565541" stroke-dasharray=""/><path fill="white" stroke="black" paint-order="fill stroke markers" d=" M 924.8508715761719 636.1682097480001 L 939.9295207761719 636.1682097480001 L 939.9295207761719 678.3884275080001 L 924.8508715761719 678.3884275080001 L 924.8508715761719 636.1682097480001" stroke-miterlimit="10" stroke-width="1.2565541" stroke-dasharray=""/><path fill="white" stroke="black" paint-order="fill stroke markers" d=" M 728.7634718884766 720.608645268 L 743.8421210884766 720.608645268 L 743.8421210884766 762.828863028 L 728.7634718884766 762.828863028 L 728.7634718884766 720.608645268" stroke-miterlimit="10" stroke-width="1.2565541" stroke-dasharray=""/><path fill="white" stroke="black" paint-order="fill stroke markers" d=" M 15.472076416015625 919.6468147080001 L 30.550725616015626 919.6468147080001 L 30.550725616015626 1257.408556788 L 15.472076416015625 1257.408556788 L 15.472076416015625 919.6468147080001" stroke-miterlimit="10" stroke-width="1.2565541" stroke-dasharray=""/><path fill="white" stroke="black" paint-order="fill stroke markers" d=" M 214.11647488242187 961.867032468 L 229.19512408242184 961.867032468 L 229.19512408242184 1257.408556788 L 214.11647488242187 1257.408556788 L 214.11647488242187 961.867032468" stroke-miterlimit="10" stroke-width="1.2565541" stroke-dasharray=""/><path fill="white" stroke="black" paint-order="fill stroke markers" d=" M 512.9719786955078 1004.087250228 L 528.0506278955078 1004.087250228 L 528.0506278955078 1215.188339028 L 512.9719786955078 1215.188339028 L 512.9719786955078 1004.087250228" stroke-miterlimit="10" stroke-width="1.2565541" stroke-dasharray=""/><path fill="white" stroke="black" paint-order="fill stroke markers" d=" M 924.8508715761719 1046.307467988 L 939.9295207761719 1046.307467988 L 939.9295207761719 1088.527685748 L 924.8508715761719 1088.527685748 L 924.8508715761719 1046.307467988" stroke-miterlimit="10" stroke-width="1.2565541" stroke-dasharray=""/><path fill="white" stroke="black" paint-order="fill stroke markers" d=" M 728.7634718884766 1130.747903508 L 743.8421210884766 1130.747903508 L 743.8421210884766 1172.968121268 L 728.7634718884766 1172.968121268 L 728.7634718884766 1130.747903508" stroke-miterlimit="10" stroke-width="1.2565541" stroke-dasharray=""/><path fill="white" stroke="black" paint-order="fill stroke markers" d=" M 9.440616736015624 149.127840588 L 932.3901961761719 149.127840588 L 945.9609804561719 162.698624868 L 945.9609804561719 183.808733748 L 9.440616736015624 183.808733748 L 9.440616736015624 149.127840588 M 932.3901961761719 149.127840588 L 932.3901961761719 162.698624868 L 945.9609804561719 162.698624868" stroke-miterlimit="10" stroke-width="1.2565541" stroke-dasharray=""/><g><text fill="black" stroke="none" font-family="sans-serif" font-size="11pt" font-style="normal" font-weight="normal" text-decoration="normal" x="431.25594385976564" y="170.237949468" text-anchor="start" dominant-baseline="alphabetic">Authentication</text></g><g><g><rect fill="white" stroke="none" x="58.154871716875" y="206.426707548" width="128.3574570646875" height="19.602243960000003"/></g><text fill="black" stroke="none" font-family="sans-serif" font-size="11pt" font-style="normal" font-weight="normal" text-decoration="normal" x="60.416669096875" y="219.997491828" text-anchor="start" dominant-baseline="alphabetic">Enter Login Details</text></g><g><path fill="none" stroke="black" paint-order="fill stroke markers" d=" M 30.550725616015626 226.028951508 L 211.60336668242186 226.028951508" stroke-miterlimit="10" stroke-width="1.2565541" stroke-dasharray=""/><g transform="translate(214.11647488242187,226.028951508) translate(-214.11647488242187,-226.028951508)"><path fill="black" stroke="none" paint-order="stroke fill markers" d=" M 201.55093388242187 219.746181008 L 214.11647488242187 226.028951508 L 201.55093388242187 232.311722008 Z"/></g></g><g><g><rect fill="white" stroke="none" x="308.9443888966601" y="248.646925308" width="124.27832498460937" height="19.602243960000003"/></g><text fill="black" stroke="none" font-family="sans-serif" font-size="11pt" font-style="normal" font-weight="normal" text-decoration="normal" x="311.2061862766601" y="262.217709588" text-anchor="start" dominant-baseline="alphabetic">Authenticate(user)</text></g><g><path fill="none" stroke="black" paint-order="fill stroke markers" d=" M 229.19512408242184 268.249169268 L 510.4588704955078 268.249169268" stroke-miterlimit="10" stroke-width="1.2565541" stroke-dasharray=""/><g transform="translate(512.9719786955078,268.249169268) translate(-512.9719786955078,-268.249169268)"><path fill="black" stroke="none" paint-order="stroke fill markers" d=" M 500.4064376955078 261.966398768 L 512.9719786955078 268.249169268 L 500.4064376955078 274.53193976800003 Z"/></g></g><g><g><rect fill="white" stroke="none" x="569.5204585056446" y="290.867143068" width="117.77318277269531" height="19.602243960000003"/></g><text fill="black" stroke="none" font-family="sans-serif" font-size="11pt" font-style="normal" font-weight="normal" text-decoration="normal" x="571.7822558856445" y="304.437927348" text-anchor="start" dominant-baseline="alphabetic">Search Database</text></g><g><path fill="none" stroke="black" paint-order="fill stroke markers" d=" M 528.0506278955078 310.469387028 L 726.2503636884766 310.469387028" stroke-miterlimit="10" stroke-width="1.2565541" stroke-dasharray=""/><g transform="translate(728.7634718884766,310.469387028) translate(-728.7634718884766,-310.469387028)"><path fill="black" stroke="none" paint-order="stroke fill markers" d=" M 716.1979308884765 304.186616528 L 728.7634718884766 310.469387028 L 716.1979308884765 316.75215752800005 Z"/></g></g><g><g><rect fill="white" stroke="none" x="545.8936961155079" y="333.08736082800004" width="165.02670755296876" height="19.602243960000003"/></g><text fill="black" stroke="none" font-family="sans-serif" font-size="11pt" font-style="normal" font-weight="normal" text-decoration="normal" x="548.1554934955078" y="346.6581451080001" text-anchor="start" dominant-baseline="alphabetic">Authentication Succesful</text></g><g><path fill="none" stroke="black" paint-order="fill stroke markers" d=" M 728.7634718884766 352.68960478800005 L 530.5637360955078 352.68960478800005" stroke-miterlimit="10" stroke-width="1.2565541" stroke-dasharray="6.03145968"/><g transform="translate(528.0506278955078,352.68960478800005) translate(-528.0506278955078,-352.68960478800005)"><path fill="black" stroke="none" paint-order="stroke fill markers" d=" M 540.6161688955078 346.406834288 L 528.0506278955078 352.68960478800005 L 540.6161688955078 358.9723752880001 Z"/></g></g><g><g><rect fill="white" stroke="none" x="284.9061351124804" y="375.30757858800007" width="172.35483255296876" height="19.602243960000003"/></g><text fill="black" stroke="none" font-family="sans-serif" font-size="11pt" font-style="normal" font-weight="normal" text-decoration="normal" x="287.1679324924804" y="388.87836286800007" text-anchor="start" dominant-baseline="alphabetic">Authentication Successful</text></g><g><path fill="none" stroke="black" paint-order="fill stroke markers" d=" M 512.9719786955078 394.9098225480001 L 231.70823228242185 394.9098225480001" stroke-miterlimit="10" stroke-width="1.2565541" stroke-dasharray="6.03145968"/><g transform="translate(229.19512408242184,394.9098225480001) translate(-229.19512408242184,-394.9098225480001)"><path fill="black" stroke="none" paint-order="stroke fill markers" d=" M 241.76066508242184 388.62705204800005 L 229.19512408242184 394.9098225480001 L 241.76066508242184 401.1925930480001 Z"/></g></g><g><g><rect fill="white" stroke="none" x="64.67074848689452" y="417.5277963480001" width="115.32570352464843" height="19.602243960000003"/></g><text fill="black" stroke="none" font-family="sans-serif" font-size="11pt" font-style="normal" font-weight="normal" text-decoration="normal" x="66.93254586689453" y="431.09858062800015" text-anchor="start" dominant-baseline="alphabetic">Login Successful</text></g><g><path fill="none" stroke="black" paint-order="fill stroke markers" d=" M 214.11647488242187 437.1300403080001 L 33.063833816015624 437.1300403080001" stroke-miterlimit="10" stroke-width="1.2565541" stroke-dasharray="6.03145968"/><g transform="translate(30.550725616015626,437.1300403080001) translate(-30.550725616015626,-437.1300403080001)"><path fill="black" stroke="none" paint-order="stroke fill markers" d=" M 43.11626661601563 430.8472698080001 L 30.550725616015626 437.1300403080001 L 43.11626661601563 443.41281080800013 Z"/></g></g><path fill="white" stroke="black" paint-order="fill stroke markers" d=" M 9.440616736015624 459.7480141080001 L 932.3901961761719 459.7480141080001 L 945.9609804561719 473.3187983880001 L 945.9609804561719 494.4289072680001 L 9.440616736015624 494.4289072680001 L 9.440616736015624 459.7480141080001 M 932.3901961761719 459.7480141080001 L 932.3901961761719 473.3187983880001 L 945.9609804561719 473.3187983880001" stroke-miterlimit="10" stroke-width="1.2565541" stroke-dasharray=""/><g><text fill="black" stroke="none" font-family="sans-serif" font-size="11pt" font-style="normal" font-weight="normal" text-decoration="normal" x="384.16368922109376" y="480.8581229880001" text-anchor="start" dominant-baseline="alphabetic">View Temperature \ Humidity</text></g><g><g><rect fill="white" stroke="none" x="59.11049915828125" y="517.0468810680002" width="126.446202181875" height="19.602243960000003"/></g><g><rect fill="white" stroke="none" x="59.11049915828125" y="532.1255302680001" width="73.74718179613281" height="19.602243960000003"/></g><text fill="black" stroke="none" font-family="sans-serif" font-size="11pt" font-style="normal" font-weight="normal" text-decoration="normal" x="61.37229653828125" y="530.6176653480002" text-anchor="start" dominant-baseline="alphabetic">View Temperature </text><text fill="black" stroke="none" font-family="sans-serif" font-size="11pt" font-style="normal" font-weight="normal" text-decoration="normal" x="61.37229653828125" y="545.6963145480001" text-anchor="start" dominant-baseline="alphabetic"> \ Humidity</text></g><g><path fill="none" stroke="black" paint-order="fill stroke markers" d=" M 30.550725616015626 551.7277742280002 L 211.60336668242186 551.7277742280002" stroke-miterlimit="10" stroke-width="1.2565541" stroke-dasharray=""/><g transform="translate(214.11647488242187,551.7277742280002) translate(-214.11647488242187,-551.7277742280002)"><path fill="black" stroke="none" paint-order="stroke fill markers" d=" M 201.55093388242187 545.4450037280002 L 214.11647488242187 551.7277742280002 L 201.55093388242187 558.0105447280001 Z"/></g></g><g><g><rect fill="white" stroke="none" x="299.5948024098437" y="574.3457480280001" width="142.9774979582422" height="19.602243960000003"/></g><text fill="black" stroke="none" font-family="sans-serif" font-size="11pt" font-style="normal" font-weight="normal" text-decoration="normal" x="301.8565997898437" y="587.9165323080001" text-anchor="start" dominant-baseline="alphabetic">Get_Temp/Humidity()</text></g><g><path fill="none" stroke="black" paint-order="fill stroke markers" d=" M 229.19512408242184 593.9479919880001 L 510.4588704955078 593.9479919880001" stroke-miterlimit="10" stroke-width="1.2565541" stroke-dasharray=""/><g transform="translate(512.9719786955078,593.9479919880001) translate(-512.9719786955078,-593.9479919880001)"><path fill="black" stroke="none" paint-order="stroke fill markers" d=" M 500.4064376955078 587.6652214880002 L 512.9719786955078 593.9479919880001 L 500.4064376955078 600.2307624880001 Z"/></g></g><g><g><rect fill="white" stroke="none" x="685.0829571776172" y="616.5659657880001" width="82.73558511644531" height="19.602243960000003"/></g><text fill="black" stroke="none" font-family="sans-serif" font-size="11pt" font-style="normal" font-weight="normal" text-decoration="normal" x="687.3447545576172" y="630.1367500680001" text-anchor="start" dominant-baseline="alphabetic">fetch_data()</text></g><g><path fill="none" stroke="black" paint-order="fill stroke markers" d=" M 528.0506278955078 636.1682097480001 L 922.3377633761719 636.1682097480001" stroke-miterlimit="10" stroke-width="1.2565541" stroke-dasharray=""/><g transform="translate(924.8508715761719,636.1682097480001) translate(-924.8508715761719,-636.1682097480001)"><path fill="black" stroke="none" paint-order="stroke fill markers" d=" M 912.2853305761719 629.8854392480001 L 924.8508715761719 636.1682097480001 L 912.2853305761719 642.4509802480001 Z"/></g></g><g><g><rect fill="white" stroke="none" x="677.7584103636524" y="658.786183548" width="97.384678744375" height="19.602243960000003"/></g><text fill="black" stroke="none" font-family="sans-serif" font-size="11pt" font-style="normal" font-weight="normal" text-decoration="normal" x="680.0202077436523" y="672.356967828" text-anchor="start" dominant-baseline="alphabetic">Return_Data()</text></g><g><path fill="none" stroke="black" paint-order="fill stroke markers" d=" M 924.8508715761719 678.3884275080001 L 530.5637360955078 678.3884275080001" stroke-miterlimit="10" stroke-width="1.2565541" stroke-dasharray="6.03145968"/><g transform="translate(528.0506278955078,678.3884275080001) translate(-528.0506278955078,-678.3884275080001)"><path fill="black" stroke="none" paint-order="stroke fill markers" d=" M 540.6161688955078 672.1056570080001 L 528.0506278955078 678.3884275080001 L 540.6161688955078 684.671198008 Z"/></g></g><g><g><rect fill="white" stroke="none" x="562.1887553196094" y="701.006401308" width="132.43658914476563" height="19.602243960000003"/></g><text fill="black" stroke="none" font-family="sans-serif" font-size="11pt" font-style="normal" font-weight="normal" text-decoration="normal" x="564.4505526996094" y="714.577185588" text-anchor="start" dominant-baseline="alphabetic">Update_Database()</text></g><g><path fill="none" stroke="black" paint-order="fill stroke markers" d=" M 528.0506278955078 720.608645268 L 726.2503636884766 720.608645268" stroke-miterlimit="10" stroke-width="1.2565541" stroke-dasharray=""/><g transform="translate(728.7634718884766,720.608645268) translate(-728.7634718884766,-720.608645268)"><path fill="black" stroke="none" paint-order="stroke fill markers" d=" M 716.1979308884765 714.3258747680001 L 728.7634718884766 720.608645268 L 716.1979308884765 726.891415768 Z"/></g></g><g><g><rect fill="white" stroke="none" x="565.0334132175586" y="743.226619068" width="126.74727334886718" height="19.602243960000003"/></g><text fill="black" stroke="none" font-family="sans-serif" font-size="11pt" font-style="normal" font-weight="normal" text-decoration="normal" x="567.2952105975586" y="756.797403348" text-anchor="start" dominant-baseline="alphabetic">Updated Database</text></g><g><path fill="none" stroke="black" paint-order="fill stroke markers" d=" M 728.7634718884766 762.828863028 L 530.5637360955078 762.828863028" stroke-miterlimit="10" stroke-width="1.2565541" stroke-dasharray="6.03145968"/><g transform="translate(528.0506278955078,762.828863028) translate(-528.0506278955078,-762.828863028)"><path fill="black" stroke="none" paint-order="stroke fill markers" d=" M 540.6161688955078 756.546092528 L 528.0506278955078 762.828863028 L 540.6161688955078 769.111633528 Z"/></g></g><g><g><rect fill="white" stroke="none" x="288.98168900652337" y="785.446836828" width="164.20372476488282" height="19.602243960000003"/></g><text fill="black" stroke="none" font-family="sans-serif" font-size="11pt" font-style="normal" font-weight="normal" text-decoration="normal" x="291.2434863865234" y="799.017621108" text-anchor="start" dominant-baseline="alphabetic">Return_Received_data()</text></g><g><path fill="none" stroke="black" paint-order="fill stroke markers" d=" M 512.9719786955078 805.049080788 L 231.70823228242185 805.049080788" stroke-miterlimit="10" stroke-width="1.2565541" stroke-dasharray="6.03145968"/><g transform="translate(229.19512408242184,805.049080788) translate(-229.19512408242184,-805.049080788)"><path fill="black" stroke="none" paint-order="stroke fill markers" d=" M 241.76066508242184 798.766310288 L 229.19512408242184 805.049080788 L 241.76066508242184 811.3318512879999 Z"/></g></g><g><g><rect fill="white" stroke="none" x="48.393793836015625" y="827.667054588" width="147.87961282640626" height="19.602243960000003"/></g><g><rect fill="white" stroke="none" x="48.393793836015625" y="842.745703788" width="46.07349100023438" height="19.602243960000003"/></g><text fill="black" stroke="none" font-family="sans-serif" font-size="11pt" font-style="normal" font-weight="normal" text-decoration="normal" x="50.65559121601562" y="841.237838868" text-anchor="start" dominant-baseline="alphabetic">Temperature/Humidity</text><text fill="black" stroke="none" font-family="sans-serif" font-size="11pt" font-style="normal" font-weight="normal" text-decoration="normal" x="50.65559121601562" y="856.316488068" text-anchor="start" dominant-baseline="alphabetic">Status</text></g><g><path fill="none" stroke="black" paint-order="fill stroke markers" d=" M 214.11647488242187 862.347947748 L 33.063833816015624 862.347947748" stroke-miterlimit="10" stroke-width="1.2565541" stroke-dasharray="6.03145968"/><g transform="translate(30.550725616015626,862.347947748) translate(-30.550725616015626,-862.347947748)"><path fill="black" stroke="none" paint-order="stroke fill markers" d=" M 43.11626661601563 856.065177248 L 30.550725616015626 862.347947748 L 43.11626661601563 868.630718248 Z"/></g></g><path fill="white" stroke="black" paint-order="fill stroke markers" d=" M 9.440616736015624 884.9659215480001 L 932.3901961761719 884.9659215480001 L 945.9609804561719 898.5367058280001 L 945.9609804561719 919.6468147080001 L 9.440616736015624 919.6468147080001 L 9.440616736015624 884.9659215480001 M 932.3901961761719 884.9659215480001 L 932.3901961761719 898.5367058280001 L 945.9609804561719 898.5367058280001" stroke-miterlimit="10" stroke-width="1.2565541" stroke-dasharray=""/><g><text fill="black" stroke="none" font-family="sans-serif" font-size="11pt" font-style="normal" font-weight="normal" text-decoration="normal" x="334.21202906484376" y="906.0760304280001" text-anchor="start" dominant-baseline="alphabetic">Turn ON/OFF/Configure Lights/Projector/AC</text></g><g><g><rect fill="white" stroke="none" x="69.1542155889453" y="942.264788508" width="106.35876932054687" height="19.602243960000003"/></g><text fill="black" stroke="none" font-family="sans-serif" font-size="11pt" font-style="normal" font-weight="normal" text-decoration="normal" x="71.41601296894531" y="955.835572788" text-anchor="start" dominant-baseline="alphabetic">Manage Device</text></g><g><path fill="none" stroke="black" paint-order="fill stroke markers" d=" M 30.550725616015626 961.867032468 L 211.60336668242186 961.867032468" stroke-miterlimit="10" stroke-width="1.2565541" stroke-dasharray=""/><g transform="translate(214.11647488242187,961.867032468) translate(-214.11647488242187,-961.867032468)"><path fill="black" stroke="none" paint-order="stroke fill markers" d=" M 201.55093388242187 955.5842619680001 L 214.11647488242187 961.867032468 L 201.55093388242187 968.149802968 Z"/></g></g><g><g><rect fill="white" stroke="none" x="247.03819230242183" y="984.485006268" width="248.09071817308595" height="19.602243960000003"/></g><text fill="black" stroke="none" font-family="sans-serif" font-size="11pt" font-style="normal" font-weight="normal" text-decoration="normal" x="249.29998968242182" y="998.055790548" text-anchor="start" dominant-baseline="alphabetic">Control_Device(Device_Id,Operation)</text></g><g><path fill="none" stroke="black" paint-order="fill stroke markers" d=" M 229.19512408242184 1004.087250228 L 510.4588704955078 1004.087250228" stroke-miterlimit="10" stroke-width="1.2565541" stroke-dasharray=""/><g transform="translate(512.9719786955078,1004.087250228) translate(-512.9719786955078,-1004.087250228)"><path fill="black" stroke="none" paint-order="stroke fill markers" d=" M 500.4064376955078 997.804479728 L 512.9719786955078 1004.087250228 L 500.4064376955078 1010.370020728 Z"/></g></g><g><g><rect fill="white" stroke="none" x="563.2850674681446" y="1026.7052240280002" width="326.3313645353906" height="19.602243960000003"/></g><text fill="black" stroke="none" font-family="sans-serif" font-size="11pt" font-style="normal" font-weight="normal" text-decoration="normal" x="565.5468648481445" y="1040.2760083080002" text-anchor="start" dominant-baseline="alphabetic">FetchUpdate_device_status(Device_Id,operation)</text></g><g><path fill="none" stroke="black" paint-order="fill stroke markers" d=" M 528.0506278955078 1046.307467988 L 922.3377633761719 1046.307467988" stroke-miterlimit="10" stroke-width="1.2565541" stroke-dasharray=""/><g transform="translate(924.8508715761719,1046.307467988) translate(-924.8508715761719,-1046.307467988)"><path fill="black" stroke="none" paint-order="stroke fill markers" d=" M 912.2853305761719 1040.0246974880001 L 924.8508715761719 1046.307467988 L 912.2853305761719 1052.590238488 Z"/></g></g><g><g><rect fill="white" stroke="none" x="641.5006512694141" y="1068.9254417880002" width="169.90019693285157" height="19.602243960000003"/></g><text fill="black" stroke="none" font-family="sans-serif" font-size="11pt" font-style="normal" font-weight="normal" text-decoration="normal" x="643.7624486494141" y="1082.4962260680002" text-anchor="start" dominant-baseline="alphabetic">Updated_Device_status()</text></g><g><path fill="none" stroke="black" paint-order="fill stroke markers" d=" M 924.8508715761719 1088.527685748 L 530.5637360955078 1088.527685748" stroke-miterlimit="10" stroke-width="1.2565541" stroke-dasharray="6.03145968"/><g transform="translate(528.0506278955078,1088.527685748) translate(-528.0506278955078,-1088.527685748)"><path fill="black" stroke="none" paint-order="stroke fill markers" d=" M 540.6161688955078 1082.244915248 L 528.0506278955078 1088.527685748 L 540.6161688955078 1094.810456248 Z"/></g></g><g><g><rect fill="white" stroke="none" x="562.1887553196094" y="1111.1456595480001" width="132.43658914476563" height="19.602243960000003"/></g><text fill="black" stroke="none" font-family="sans-serif" font-size="11pt" font-style="normal" font-weight="normal" text-decoration="normal" x="564.4505526996094" y="1124.7164438280001" text-anchor="start" dominant-baseline="alphabetic">Update_Database()</text></g><g><path fill="none" stroke="black" paint-order="fill stroke markers" d=" M 528.0506278955078 1130.747903508 L 726.2503636884766 1130.747903508" stroke-miterlimit="10" stroke-width="1.2565541" stroke-dasharray=""/><g transform="translate(728.7634718884766,1130.747903508) translate(-728.7634718884766,-1130.747903508)"><path fill="black" stroke="none" paint-order="stroke fill markers" d=" M 716.1979308884765 1124.465133008 L 728.7634718884766 1130.747903508 L 716.1979308884765 1137.030674008 Z"/></g></g><g><g><rect fill="white" stroke="none" x="565.0334132175586" y="1153.365877308" width="126.74727334886718" height="19.602243960000003"/></g><text fill="black" stroke="none" font-family="sans-serif" font-size="11pt" font-style="normal" font-weight="normal" text-decoration="normal" x="567.2952105975586" y="1166.936661588" text-anchor="start" dominant-baseline="alphabetic">Updated Database</text></g><g><path fill="none" stroke="black" paint-order="fill stroke markers" d=" M 728.7634718884766 1172.968121268 L 530.5637360955078 1172.968121268" stroke-miterlimit="10" stroke-width="1.2565541" stroke-dasharray="6.03145968"/><g transform="translate(528.0506278955078,1172.968121268) translate(-528.0506278955078,-1172.968121268)"><path fill="black" stroke="none" paint-order="stroke fill markers" d=" M 540.6161688955078 1166.685350768 L 528.0506278955078 1172.968121268 L 540.6161688955078 1179.250891768 Z"/></g></g><g><g><rect fill="white" stroke="none" x="293.0608210866015" y="1195.586095068" width="156.04546060472657" height="19.602243960000003"/></g><text fill="black" stroke="none" font-family="sans-serif" font-size="11pt" font-style="normal" font-weight="normal" text-decoration="normal" x="295.3226184666015" y="1209.156879348" text-anchor="start" dominant-baseline="alphabetic">Return_device_status()</text></g><g><path fill="none" stroke="black" paint-order="fill stroke markers" d=" M 512.9719786955078 1215.188339028 L 231.70823228242185 1215.188339028" stroke-miterlimit="10" stroke-width="1.2565541" stroke-dasharray="6.03145968"/><g transform="translate(229.19512408242184,1215.188339028) translate(-229.19512408242184,-1215.188339028)"><path fill="black" stroke="none" paint-order="stroke fill markers" d=" M 241.76066508242184 1208.905568528 L 229.19512408242184 1215.188339028 L 241.76066508242184 1221.471109528 Z"/></g></g><g><g><rect fill="white" stroke="none" x="74.86142231501952" y="1237.806312828" width="94.94435586839843" height="19.602243960000003"/></g><text fill="black" stroke="none" font-family="sans-serif" font-size="11pt" font-style="normal" font-weight="normal" text-decoration="normal" x="77.12321969501953" y="1251.377097108" text-anchor="start" dominant-baseline="alphabetic">Device Status</text></g><g><path fill="none" stroke="black" paint-order="fill stroke markers" d=" M 214.11647488242187 1257.408556788 L 33.063833816015624 1257.408556788" stroke-miterlimit="10" stroke-width="1.2565541" stroke-dasharray="6.03145968"/><g transform="translate(30.550725616015626,1257.408556788) translate(-30.550725616015626,-1257.408556788)"><path fill="black" stroke="none" paint-order="stroke fill markers" d=" M 43.11626661601563 1251.125786288 L 30.550725616015626 1257.408556788 L 43.11626661601563 1263.691327288 Z"/></g></g></g><g/><g/><g/><g/><g/></g></svg>